<svg width="40" height="41" viewBox="0 0 40 41" fill="none" xmlns="http://www.w3.org/2000/svg">
<path d="M0 12.4276V17.7643V18.3921H15.0714L17.7127 21.0605L21.2864 12.1137H23.4616L27.6567 18.3921H39.9991L40 17.4504C40.0006 14.8062 39.9829 12.6861 39.9314 12.1137C39.8071 10.7324 38.8437 10.3871 38.3776 10.3871H31.3857C30.6399 10.7638 30.4535 10.2301 30.4535 9.9162V1.44029C30.4535 0.0590312 29.1069 -0.0770042 28.4336 0.0276353C23.617 0.0799558 13.7662 0.153204 12.8961 0.0276353C12.026 -0.0979339 11.2906 0.917083 11.0316 1.44029C10.9798 3.95167 10.9073 9.10001 11.0316 9.60228C11.1559 10.1046 10.4619 10.3348 10.0994 10.3871H3.1075C1.3673 10.3871 0.31075 11.7474 0 12.4276Z" fill="#A0E2E2"/>
<path d="M0 22.787L14.2945 22.6301L16.7805 28.4377H19.1111L22.5294 18.3921L25.7922 22.6301H39.982C39.9905 21.2007 39.9968 19.7473 39.9991 18.3921H27.6567L23.4616 12.1137H21.2864L17.7127 21.0605L15.0714 18.3921H0V22.787Z" fill="white"/>
<path d="M38.9991 29.5088C40.1247 29.5088 39.9268 28.8533 39.9314 28.41C39.9486 26.736 39.9682 24.9643 39.982 22.6301H25.7922L22.5294 18.3921L19.1111 28.4377H16.7805L14.2945 22.6301L0 22.787V27.8098C0 29.4422 0.6215 29.641 0.93225 29.5364H9.78862C10.5344 29.5364 10.8245 30.1642 10.8762 30.4782V39.111C10.8762 40.7434 11.7049 41.0469 12.1192 40.9946H28.1229C29.8631 40.9946 30.4017 39.7389 30.4535 39.111V30.4782C30.4535 29.7247 31.075 29.5364 31.3857 29.5364C33.4574 29.641 37.7561 29.5088 38.9991 29.5088Z" fill="#A0E2E2"/>
</svg>
