<svg width="20" height="20" viewBox="0 0 20 20" fill="none" xmlns="http://www.w3.org/2000/svg">
<path fill-rule="evenodd" clip-rule="evenodd" d="M10.0005 9.99998C7.78351 9.99998 5.98154 8.20598 5.98154 5.99998C5.98154 3.79398 7.78351 1.99998 10.0005 1.99998C12.2174 1.99998 14.0194 3.79398 14.0194 5.99998C14.0194 8.20598 12.2174 9.99998 10.0005 9.99998ZM13.7764 10.6729C14.6026 10.015 15.2398 9.14995 15.6231 8.16575C16.0063 7.18155 16.122 6.11336 15.9583 5.06993C15.5613 2.44693 13.3694 0.347977 10.7224 0.0419768C7.07052 -0.381023 3.97258 2.44898 3.97258 5.99998C3.97258 7.88998 4.85256 9.57395 6.22454 10.6729C2.8526 11.9339 0.390652 14.895 0.00465949 18.891C-0.00883628 19.0311 0.00706346 19.1726 0.0513352 19.3062C0.0956069 19.4399 0.16728 19.5628 0.261773 19.6672C0.356265 19.7716 0.471495 19.855 0.600099 19.9123C0.728703 19.9696 0.867852 19.9995 1.00864 20C1.25543 20.002 1.49406 19.9117 1.67775 19.7469C1.86144 19.5821 1.97695 19.3545 2.00162 19.109C2.40461 14.646 5.83754 12 10.0005 12C14.1634 12 17.5963 14.646 17.9993 19.109C18.024 19.3545 18.1395 19.5821 18.3232 19.7469C18.5069 19.9117 18.7455 20.002 18.9923 20C19.5883 20 20.0523 19.482 19.9953 18.891C19.6103 14.895 17.1483 11.9339 13.7754 10.6729" fill="#052E16"/>
</svg>
