<svg width="41" height="41" viewBox="0 0 41 41" fill="none" xmlns="http://www.w3.org/2000/svg">
<path d="M0.970703 12.4276V17.7643V18.3921H16.0421L18.6835 21.0605L22.2571 12.1137H24.4323L28.6274 18.3921H40.9698L40.9707 17.4504C40.9713 14.8062 40.9536 12.6861 40.9021 12.1137C40.7778 10.7324 39.8144 10.3871 39.3483 10.3871H32.3564C31.6106 10.7638 31.4242 10.2301 31.4242 9.9162V1.44029C31.4242 0.0590312 30.0776 -0.0770042 29.4043 0.0276353C24.5877 0.0799558 14.7369 0.153204 13.8668 0.0276353C12.9967 -0.0979339 12.2613 0.917083 12.0023 1.44029C11.9505 3.95167 11.878 9.10001 12.0023 9.60228C12.1266 10.1046 11.4326 10.3348 11.0701 10.3871H4.0782C2.338 10.3871 1.28145 11.7474 0.970703 12.4276Z" fill="#74C0F3"/>
<path d="M0.970703 22.787L15.2652 22.6301L17.7512 28.4377H20.0818L23.5001 18.3921L26.7629 22.6301H40.9527C40.9612 21.2007 40.9675 19.7473 40.9698 18.3921H28.6274L24.4323 12.1137H22.2571L18.6835 21.0605L16.0421 18.3921H0.970703V22.787Z" fill="white"/>
<path d="M39.9698 29.5088C41.0954 29.5088 40.8975 28.8533 40.9021 28.41C40.9193 26.736 40.9389 24.9643 40.9527 22.6301H26.7629L23.5001 18.3921L20.0818 28.4377H17.7512L15.2652 22.6301L0.970703 22.787V27.8098C0.970703 29.4422 1.5922 29.641 1.90295 29.5364H10.7593C11.5051 29.5364 11.7952 30.1642 11.847 30.4782V39.111C11.847 40.7434 12.6756 41.0469 13.09 40.9946H29.0936C30.8338 40.9946 31.3724 39.7389 31.4242 39.111V30.4782C31.4242 29.7247 32.0457 29.5364 32.3564 29.5364C34.4281 29.641 38.7268 29.5088 39.9698 29.5088Z" fill="#74C0F3"/>
</svg>
